<svg xmlns="http://www.w3.org/2000/svg" viewBox="0 0 64 64"><defs><radialGradient id="g" cx="50%" cy="40%" r="50%"><stop offset="0%" stop-color="#fff"/><stop offset="100%" stop-color="#e0e0e0"/></radialGradient></defs><circle cx="32" cy="32" r="30" fill="url(#g)" stroke="#333" stroke-width="1.5"/><polygon points="32,9 39,15 36,24 28,24 25,15" fill="#333"/><polygon points="13,21 19,16 27,21 25,29 16,29" fill="#333"/><polygon points="51,21 45,16 37,21 39,29 48,29" fill="#333"/><polygon points="11,39 18,34 25,39 23,47 14,46" fill="#333"/><polygon points="53,39 46,34 39,39 41,47 50,46" fill="#333"/><polygon points="32,55 39,50 36,43 28,43 25,50" fill="#333"/><circle cx="32" cy="32" r="30" fill="none" stroke="#333" stroke-width="1.5"/></svg>
